<?xml version="1.0" encoding="UTF-8"?>
<svg id="Layer_1" xmlns="http://www.w3.org/2000/svg" version="1.1" viewBox="0 0 1200 630">
  <defs>
    <style>
      .bg-main { fill: #005f6b; }
      .stripe1 { fill: #001a1e; }
      .stripe2 { fill: #002830; }
      .stripe3 { fill: #003540; }
      .stripe4 { fill: #004350; }
      .stripe5 { fill: #005060; }
      .tagline { fill: #faf7f5; font-family: Inter-Regular, Inter; font-size: 18px; }
      .headline { font-family: Inter-Bold, Inter; font-weight: 700; font-size: 60px; }
      .hl-white { fill: #ffffff; }
      .hl-teal { fill: #0096a6; }
      .sub { fill: #faf7f5; font-family: Inter-Regular, Inter; font-size: 36px; }
      .node { fill: #0c0c14; stroke: #1a2a2d; stroke-width: 1.5px; }
      .node-worker { fill: #0c0c14; stroke: #0096a6; stroke-width: 2.5px; }
      .node-title { fill: #faf7f5; font-family: Inter-Bold, Inter; font-weight: 700; font-size: 14px; }
      .node-meta { fill: #888888; font-family: 'Courier New', Courier, monospace; font-size: 11px; }
      .engine-card { fill: #0c0c14; stroke: #e673ac; stroke-width: 1.5px; }
      .engine-label { fill: #faf7f5; font-family: Inter-Bold, Inter; font-weight: 700; font-size: 15px; }
      .engine-meta { fill: #888888; font-family: 'Courier New', Courier, monospace; font-size: 10px; }
      .arrow { stroke: #0096a6; stroke-width: 2.5px; fill: none; }
      .arrow-label { fill: #faf7f5; font-family: 'Courier New', Courier, monospace; font-size: 10px; font-weight: 700; }
      .badge { fill: #0096a6; }
      .badge-text { fill: #001a1e; font-family: Inter-Bold, Inter; font-weight: 800; font-size: 10px; letter-spacing: 2px; }
    </style>
    <marker id="arr" viewBox="0 0 10 10" refX="8" refY="5" markerWidth="6" markerHeight="6" orient="auto-start-reverse">
      <path d="M0,0 L10,5 L0,10 z" fill="#0096a6"/>
    </marker>
  </defs>
  <g>
    <rect class="bg-main" x="0" y="0" width="1200" height="630"/>
    <rect class="stripe1" x="0" y="0" width="150" height="630"/>
    <rect class="stripe2" x="149.15" y="0" width="150" height="630"/>
    <rect class="stripe3" x="299.15" y="0" width="150" height="630"/>
    <rect class="stripe4" x="449.15" y="0" width="150" height="630"/>
    <rect class="stripe5" x="599.15" y="0" width="150" height="630"/>
  </g>
  <text class="tagline" transform="translate(72.53 71.11)"><tspan x="0" y="0">TECHNICAL SETUP / SEO</tspan></text>
  <text class="headline" transform="translate(72.53 178.65)"><tspan class="hl-teal"><tspan x="0" y="0">IndexNow</tspan></tspan><tspan class="hl-white"><tspan y="0"> on</tspan></tspan><tspan class="hl-white"><tspan x="0" y="72">Cloudflare</tspan></tspan><tspan class="hl-white"><tspan x="0" y="144">Workers.</tspan></tspan></text>
  <text class="sub" transform="translate(72.53 561.64)"><tspan x="0" y="0">Push new URLs the moment you publish.</tspan></text>

  <!-- RIGHT: CMS → Worker → search engines -->
  <g>
    <!-- CMS (origin) -->
    <rect class="node" x="770" y="130" width="120" height="70" rx="10" ry="10"/>
    <text class="node-title" text-anchor="middle" x="830" y="158"><tspan x="830" y="158">CMS</tspan></text>
    <text class="node-meta" text-anchor="middle" x="830" y="178"><tspan x="830" y="178">publish.webhook</tspan></text>
    <text class="node-meta" text-anchor="middle" x="830" y="192" style="fill:#faf7f5"><tspan x="830" y="192">POST /notify</tspan></text>

    <!-- Arrow CMS → Worker -->
    <line x1="895" y1="165" x2="929.0" y2="165.0" stroke="#0096a6" stroke-width="2.5" fill="none" stroke-linecap="round"/><polygon points="926.0,170.0 935.0,165.0 926.0,160.0" fill="#0096a6"/>

    <!-- Worker node -->
    <rect class="node-worker" x="940" y="115" width="180" height="100" rx="10" ry="10"/>
    <rect x="955" y="130" width="44" height="14" rx="3" ry="3" fill="#0096a6" fill-opacity="0.2" stroke="#0096a6" stroke-width="1"/>
    <text text-anchor="middle" x="977" y="140" font-family="Inter-Bold, Inter" font-weight="700" font-size="9" fill="#0096a6" style="letter-spacing:1.5px"><tspan x="977" y="140">EDGE</tspan></text>
    <text class="node-title" transform="translate(955 167)"><tspan x="0" y="0">Cloudflare Worker</tspan></text>
    <text class="node-meta" transform="translate(955 187)"><tspan x="0" y="0">fetch('https://api.</tspan></text>
    <text class="node-meta" transform="translate(955 202)"><tspan x="0" y="0">indexnow.org/indexnow')</tspan></text>

    <!-- Arrow Worker → engines (fan out) -->
    <line x1="1120" y1="150" x2="1146.9" y2="133.2" stroke="#0096a6" stroke-width="2.5" fill="none" stroke-linecap="round"/><polygon points="1147.0,139.0 1152.0,130.0 1141.7,130.5" fill="#0096a6"/>
    <line x1="1120" y1="180" x2="1146.6" y2="192.5" stroke="#0096a6" stroke-width="2.5" fill="none" stroke-linecap="round"/><polygon points="1141.7,195.7 1152.0,195.0 1146.0,186.7" fill="#0096a6"/>
    <line x1="1120" y1="200" x2="1149.5" y2="264.5" stroke="#0096a6" stroke-width="2.5" fill="none" stroke-linecap="round"/><polygon points="1143.7,263.9 1152.0,270.0 1152.8,259.7" fill="#0096a6"/>

    <!-- Search engines (stub visible indicators on the right) -->
    <g transform="translate(970 245)">
      <text class="arrow-label" transform="translate(0 0)"><tspan x="0" y="0">on publish:</tspan></text>
      <text class="arrow-label" transform="translate(0 18)" style="fill:#faf7f5;font-weight:400"><tspan x="0" y="0">urlList: [ '/article-a', '/article-b' ]</tspan></text>
    </g>

    <!-- Engine cards -->
    <rect class="engine-card" x="790" y="310" width="160" height="80" rx="10" ry="10"/>
    <text class="engine-label" transform="translate(810 340)"><tspan x="0" y="0">Bing</tspan></text>
    <text class="engine-meta" transform="translate(810 362)"><tspan x="0" y="0">www.bing.com/indexnow</tspan></text>
    <text class="engine-meta" transform="translate(810 378)" style="fill:#0096a6;font-weight:700"><tspan x="0" y="0">200 OK · queued</tspan></text>

    <rect class="engine-card" x="970" y="310" width="160" height="80" rx="10" ry="10"/>
    <text class="engine-label" transform="translate(990 340)"><tspan x="0" y="0">Yandex</tspan></text>
    <text class="engine-meta" transform="translate(990 362)"><tspan x="0" y="0">yandex.com/indexnow</tspan></text>
    <text class="engine-meta" transform="translate(990 378)" style="fill:#0096a6;font-weight:700"><tspan x="0" y="0">200 OK · queued</tspan></text>

    <rect class="engine-card" x="880" y="410" width="160" height="60" rx="10" ry="10"/>
    <text class="engine-label" transform="translate(900 435)"><tspan x="0" y="0">Seznam · Naver</tspan></text>
    <text class="engine-meta" transform="translate(900 455)"><tspan x="0" y="0">other IndexNow partners</tspan></text>

    <!-- outcome pill -->
    <rect x="770" y="490" width="360" height="30" rx="8" ry="8" fill="#0c0c14" stroke="#0096a6" stroke-width="1.5"/>
    <text text-anchor="middle" x="950" y="510" font-family="Inter-Bold, Inter" font-weight="700" font-size="12" fill="#0096a6" style="letter-spacing:2px"><tspan x="950" y="510">INDEXED IN MINUTES, NOT DAYS</tspan></text>
  </g>
</svg>
